<svg xmlns="http://www.w3.org/2000/svg" viewBox="0 0 200 50" fill="none">
  <!-- Aleris "A" icon -->
  <g transform="translate(0, 5)">
    <path d="M20 38C12 38 6 32 6 24C6 16 12 8 20 2C28 8 34 16 34 24C34 32 28 38 20 38Z" stroke="#00565C" stroke-width="3" fill="none" stroke-linecap="round" stroke-linejoin="round"/>
    <path d="M20 32C14 32 10 28 10 22C10 16 14 12 20 6C26 12 30 16 30 22C30 28 26 32 20 32Z" stroke="#00565C" stroke-width="3" fill="none" stroke-linecap="round" stroke-linejoin="round"/>
    <path d="M20 26C16 26 14 24 14 20C14 16 16 14 20 10C24 14 26 16 26 20C26 24 24 26 20 26Z" stroke="#00565C" stroke-width="3" fill="none" stroke-linecap="round" stroke-linejoin="round"/>
  </g>
  <!-- "Aleris" text -->
  <text x="50" y="35" font-family="-apple-system, BlinkMacSystemFont, 'Segoe UI', sans-serif" font-size="28" font-weight="500" fill="#00565C">Aleris</text>
</svg>
