<svg width="249" height="258" viewBox="0 0 249 258" fill="none" xmlns="http://www.w3.org/2000/svg">
<path d="M222.262 173.504C222.043 172.939 221.919 172.624 171.274 54.3462L171.112 53.9758C167.143 44.9386 160.621 37.2508 152.343 31.8524C144.065 26.4541 134.389 23.5791 124.5 23.5791C114.61 23.5791 104.934 26.4541 96.6561 31.8524C88.3779 37.2508 81.8559 44.9386 77.8876 53.9758L77.7256 54.3462C27.0797 172.624 26.9571 172.939 26.7365 173.504C17.8328 196.24 28.3649 221.5 50.715 231.011C56.2476 233.373 62.2035 234.588 68.2213 234.584C83.98 234.584 99.8548 226.13 110.7 211.392L110.774 211.289C111.333 210.493 111.888 209.798 112.475 208.89C116.251 203.055 119.018 200.526 124.5 200.526C129.982 200.526 132.747 203.055 136.525 208.89C137.111 209.798 137.667 210.493 138.225 211.289L138.298 211.392C149.145 226.13 165.02 234.584 180.779 234.584C186.796 234.588 192.752 233.373 198.285 231.011C220.635 221.5 231.167 196.24 222.262 173.504ZM193.897 220.747C189.751 222.517 185.288 223.428 180.779 223.425C168.636 223.425 156.681 216.652 147.969 204.84C147.54 204.224 147.052 203.399 146.537 202.603C142.809 196.842 136.508 187.147 124.5 187.147C112.491 187.147 106.191 196.842 102.463 202.603C101.947 203.399 101.46 204.224 101.03 204.84C92.3178 216.652 80.3627 223.425 68.2213 223.425C63.7115 223.428 59.2481 222.517 55.1019 220.747C38.3473 213.617 30.4639 194.649 37.1608 177.548C37.3802 176.999 41.1563 168.155 87.9927 58.7728L88.1207 58.4801C91.2134 51.422 96.3019 45.4168 102.763 41.1996C109.225 36.9823 116.779 34.7362 124.5 34.7362C132.221 34.7362 139.775 36.9823 146.237 41.1996C152.698 45.4168 157.786 51.422 160.879 58.4801L161.007 58.7728C207.843 168.155 211.619 176.999 211.839 177.548C218.535 194.649 210.652 213.617 193.897 220.747Z" fill="#004043"/>
<path d="M244.201 164.874C243.811 163.876 192.628 44.3391 192.628 44.3391C186.809 31.1515 177.269 19.9377 165.172 12.0648C153.075 4.19195 138.944 0 124.5 0C110.057 0 95.9251 4.19195 83.8282 12.0648C71.7313 19.9377 62.1915 31.1515 56.3718 44.3391C56.3718 44.3391 5.18944 163.876 4.79905 164.874C-8.76482 199.511 7.34748 238.021 41.4819 252.547C49.9329 256.152 59.0302 258.008 68.2217 258C81.6111 258.007 94.7202 254.174 105.987 246.956C107.728 245.824 109.331 244.797 110.882 243.751C116.702 239.824 120.814 237.535 124.5 237.535C128.186 237.535 132.298 239.824 138.119 243.751C139.669 244.797 141.272 245.824 143.013 246.956C154.28 254.174 167.389 258.007 180.779 258C189.97 258.008 199.067 256.152 207.518 252.547C241.653 238.021 257.765 199.511 244.201 164.874ZM203.132 242.282C194.521 245.949 185.137 247.44 175.811 246.625C166.485 245.81 157.504 242.712 149.664 237.607C148.002 236.527 146.439 235.473 144.928 234.453C137.521 229.457 131.613 223.741 124.5 223.741C117.387 223.741 111.479 229.457 104.072 234.453C102.561 235.473 100.998 236.527 99.336 237.607C91.4961 242.712 82.5153 245.81 73.1891 246.625C63.8628 247.44 54.4789 245.949 45.8685 242.282C17.3302 230.138 3.86656 197.92 15.2177 168.933C15.5436 168.1 66.6058 48.8414 66.6058 48.8414C71.55 37.6334 79.6563 28.1027 89.9362 21.4114C100.216 14.72 112.225 11.1571 124.5 11.1571C136.774 11.1571 148.784 14.72 159.064 21.4114C169.344 28.1027 177.45 37.6334 182.394 48.8414C182.394 48.8414 233.456 168.1 233.782 168.933C245.134 197.92 231.67 230.138 203.132 242.282Z" fill="#004043"/>
<path d="M200.361 182.054C200.183 181.595 172.686 117.372 149.651 63.5769L149.617 63.5004C148.642 61.2646 147.374 59.168 145.846 57.2653C143.28 54.0799 140.029 51.5094 136.335 49.7433C132.641 47.9772 128.597 47.0603 124.5 47.0603C120.403 47.0603 116.359 47.9772 112.665 49.7433C108.97 51.5094 105.72 54.0799 103.154 57.2653C101.626 59.168 100.358 61.2646 99.3828 63.5004L99.3491 63.5769C76.314 117.372 48.8174 181.595 48.6383 182.054C47.3315 185.253 46.8329 188.723 47.1864 192.16C47.5398 195.596 48.7344 198.894 50.665 201.761C52.5957 204.629 55.2033 206.98 58.2583 208.606C61.3134 210.232 64.7222 211.084 68.185 211.088C75.9282 211.088 83.2946 206.972 88.9244 199.501C89.2459 199.075 101.156 182.962 105.331 177.436C108.568 173.152 112.934 167.292 124.5 167.292C136.065 167.292 140.432 173.152 143.669 177.436C147.843 182.962 159.753 199.075 160.075 199.501C165.705 206.972 173.072 211.088 180.815 211.088C184.278 211.084 187.686 210.232 190.741 208.606C193.796 206.979 196.404 204.629 198.334 201.761C200.265 198.893 201.46 195.596 201.813 192.16C202.166 188.723 201.668 185.253 200.361 182.054ZM184.7 199.132C183.472 199.658 182.15 199.929 180.814 199.93C176.672 199.93 172.481 197.395 169.013 192.793C168.593 192.22 159.126 179.725 153.062 170.989C151.905 169.322 142.359 154.761 124.5 154.761C106.64 154.761 97.0943 169.322 95.9375 170.989C89.8741 179.725 80.4072 192.22 79.9865 192.793C76.5187 197.395 72.3275 199.93 68.1856 199.93C66.8496 199.929 65.5276 199.658 64.2999 199.132C61.9033 198.08 60.0123 196.137 59.0292 193.716C58.0461 191.295 58.0484 188.587 59.0355 186.168C60.3537 183.051 108.459 70.7075 109.617 68.0014C110.175 66.7024 110.901 65.4822 111.777 64.3721L111.855 64.2772C113.373 62.3865 115.297 60.8604 117.486 59.8117C119.675 58.763 122.072 58.2186 124.5 58.2186C126.928 58.2186 129.325 58.763 131.514 59.8117C133.703 60.8604 135.627 62.3865 137.145 64.2772L137.223 64.3721C138.099 65.4823 138.825 66.7025 139.382 68.0014C140.541 70.7075 188.646 183.051 189.964 186.168C190.951 188.587 190.953 191.295 189.97 193.716C188.987 196.137 187.096 198.08 184.7 199.132Z" fill="#004043"/>
</svg>
