<svg width="540" height="193" viewBox="0 0 540 193" fill="none" xmlns="http://www.w3.org/2000/svg">
<path d="M452.149 74.0491C444.089 74.0491 437.232 77.8769 433.799 85.5136C433.751 85.6648 433.653 85.7954 433.522 85.8845C433.39 85.9737 433.232 86.0161 433.074 86.0049C432.915 85.9938 432.765 85.9298 432.647 85.8232C432.53 85.7166 432.451 85.5736 432.425 85.4172V80.1629C432.425 78.5384 431.778 76.9803 430.626 75.8316C429.475 74.6828 427.913 74.0375 426.284 74.0375C424.656 74.0375 423.094 74.6828 421.942 75.8316C420.791 76.9803 420.144 78.5384 420.144 80.1629V136.823C420.144 138.489 420.806 140.087 421.984 141.268C423.162 142.449 424.76 143.117 426.43 143.126C428.1 143.135 429.706 142.484 430.896 141.315C432.086 140.147 432.765 138.556 432.783 136.89C432.799 136.692 432.783 113.256 432.783 113.256C432.783 100.229 439.046 86.449 452.003 86.3167C452.13 86.3155 452.718 86.3009 452.85 86.3009C453.653 86.3021 454.448 86.1439 455.189 85.8354C455.93 85.5269 456.601 85.0743 457.165 84.5041C457.729 83.9339 458.173 83.2574 458.472 82.5142C458.771 81.7709 458.918 80.9757 458.906 80.175C458.906 76.7916 456.264 74.0491 452.149 74.0491Z" fill="#004851"/>
<path d="M473.177 66.8363C474.737 66.8363 476.262 66.3748 477.559 65.5101C478.856 64.6455 479.867 63.4166 480.464 61.9788C481.061 60.541 481.217 58.9589 480.912 57.4326C480.608 55.9062 479.857 54.5042 478.754 53.4038C477.651 52.3035 476.245 51.5541 474.715 51.2505C473.185 50.947 471.599 51.1028 470.158 51.6984C468.717 52.294 467.485 53.3026 466.618 54.5966C465.751 55.8906 465.289 57.4119 465.289 58.9681C465.289 60.0014 465.493 61.0246 465.889 61.9792C466.286 62.9339 466.867 63.8013 467.599 64.5319C468.332 65.2625 469.201 65.8421 470.158 66.2375C471.115 66.6329 472.141 66.8364 473.177 66.8363Z" fill="#004851"/>
<path d="M479.498 80.3425C479.498 78.6701 478.832 77.0661 477.646 75.8835C476.461 74.701 474.853 74.0366 473.176 74.0366C471.5 74.0366 469.892 74.701 468.707 75.8835C467.521 77.0661 466.855 78.6701 466.855 80.3425V136.823C466.855 137.651 467.019 138.471 467.336 139.236C467.654 140.001 468.12 140.696 468.707 141.282C469.294 141.868 469.99 142.332 470.757 142.649C471.524 142.966 472.346 143.129 473.176 143.129C474.007 143.129 474.829 142.966 475.595 142.649C476.362 142.332 477.059 141.868 477.646 141.282C478.233 140.696 478.699 140.001 479.017 139.236C479.334 138.471 479.498 137.651 479.498 136.823V80.3425Z" fill="#004851"/>
<path d="M505.926 92.8257C505.926 87.2251 510.757 84.4897 517.024 84.4897C521.63 84.4548 526.155 85.6984 530.094 88.0814C530.116 88.0923 530.305 88.2093 530.382 88.2538C530.987 88.6038 531.656 88.8314 532.35 88.9234C533.044 89.0155 533.749 88.9703 534.426 88.7903C535.102 88.6104 535.736 88.2993 536.292 87.8748C536.848 87.4503 537.314 86.9207 537.665 86.3163C538.015 85.7118 538.243 85.0444 538.335 84.3522C538.427 83.6599 538.381 82.9564 538.201 82.2818C538.02 81.6071 537.708 80.9746 537.282 80.4204C536.856 79.8662 536.325 79.4011 535.719 79.0517C535.707 79.045 535.615 78.9873 535.578 78.9641C532.357 76.9804 526.817 74.0699 517.677 74.0699C504.751 74.0699 493.784 80.5825 493.784 93.0864C493.784 115.359 527.861 111.061 527.861 123.955C527.861 129.556 523.161 132.682 516.633 132.682C508.929 132.682 503.623 129.223 500.514 127.431C500.292 127.309 500.157 127.218 499.796 127.014C498.583 126.363 497.166 126.199 495.836 126.557C494.505 126.915 493.363 127.766 492.642 128.938C491.081 131.474 491.833 134.491 494.421 136.347C494.629 136.497 494.961 136.714 495.283 136.929C499.258 139.603 506.233 143.102 516.241 143.102C530.473 143.102 540.004 134.896 540.004 123.694C540.004 101.292 505.926 105.981 505.926 92.8257Z" fill="#004851"/>
<path d="M336.218 132.138C335.594 131.856 334.929 131.678 334.248 131.611C331.376 131.239 328.5 130.309 328.5 122.885V54.3166C328.5 52.6413 327.833 51.0347 326.646 49.8501C325.458 48.6655 323.848 48 322.168 48C320.489 48 318.878 48.6655 317.691 49.8501C316.503 51.0347 315.836 52.6413 315.836 54.3166V124.448C315.836 140.989 326.201 142.863 333.34 142.943C333.522 142.945 333.615 142.942 333.755 142.942C334.509 142.959 335.258 142.822 335.958 142.541C336.658 142.26 337.293 141.84 337.825 141.306C338.356 140.773 338.774 140.137 339.051 139.437C339.329 138.737 339.461 137.989 339.439 137.237C339.428 136.173 339.12 135.133 338.551 134.232C337.983 133.332 337.175 132.607 336.218 132.138Z" fill="#004851"/>
<path d="M396.784 126.68C396.617 126.803 396.215 127.107 396.01 127.248C391.522 130.481 386.118 132.202 380.583 132.161C368.824 132.161 358.509 124.215 357.726 109.888H401.181C404.48 109.888 406.303 107.804 406.303 105.46C406.303 87.0949 396.12 74.0699 377.835 74.0699C359.032 74.0699 344.8 87.6157 344.8 108.586C344.8 128.123 359.032 143.102 379.798 143.102C387.782 143.085 395.571 140.639 402.126 136.092C402.488 135.85 402.707 135.699 402.77 135.655C403.961 134.861 404.789 133.629 405.071 132.229C405.353 130.828 405.067 129.372 404.275 128.182C402.622 125.703 399.078 125.038 396.784 126.68ZM377.574 83.9689C385.933 83.9689 392.62 89.4326 393.547 100.02C393.59 100.519 393.502 101.552 391.737 101.552H358.248C360.076 90.4813 367.91 83.9689 377.574 83.9689Z" fill="#004851"/>
<path d="M306.438 133.649C306.246 133.186 305.748 132.012 305.748 132.012L272.61 54.6403C272.323 53.9437 271.956 53.283 271.515 52.6716C270.543 51.2767 269.257 50.1282 267.761 49.318C266.264 48.5079 264.598 48.0586 262.896 48.0061C261.193 47.9536 259.503 48.2994 257.958 49.0157C256.414 49.7321 255.06 50.7992 254.003 52.1315C253.397 52.899 252.894 53.7424 252.507 54.6403L219.108 132.657C219.108 132.657 218.772 133.417 218.65 133.729C218.302 134.544 218.118 135.419 218.109 136.305C218.099 137.191 218.265 138.07 218.597 138.892C218.928 139.715 219.418 140.464 220.04 141.097C220.661 141.73 221.402 142.234 222.219 142.582C223.036 142.929 223.913 143.113 224.802 143.122C225.69 143.132 226.571 142.966 227.395 142.636C228.219 142.305 228.97 141.816 229.605 141.196C230.239 140.576 230.745 139.837 231.094 139.022C231.224 138.728 231.357 138.419 231.519 138.023L241.071 115.1H283.753L293.46 138.023C293.666 138.507 293.839 138.893 293.881 138.991C294.232 139.814 294.742 140.56 295.382 141.186C296.023 141.812 296.781 142.307 297.612 142.641C298.444 142.975 299.334 143.142 300.231 143.133C301.127 143.124 302.014 142.938 302.839 142.587C303.663 142.236 304.411 141.727 305.038 141.088C305.666 140.448 306.161 139.692 306.495 138.862C306.829 138.032 306.996 137.144 306.986 136.25C306.977 135.355 306.79 134.471 306.438 133.649ZM245.077 104.419L257.248 75.2434C259.097 70.5544 261.437 65.0348 261.437 65.0348C261.437 65.0348 261.772 64.0293 262.541 64.0293C263.31 64.0293 263.654 65.0348 263.654 65.0348C263.654 65.0348 265.882 70.5544 267.73 75.2434L279.747 104.419H245.077Z" fill="#004851"/>
<path d="M165.688 129.308C165.524 128.887 165.432 128.653 127.678 40.6323L127.557 40.3566C124.599 33.6313 119.737 27.9101 113.566 23.8928C107.395 19.8754 100.182 17.7359 92.8095 17.7359C85.437 17.7359 78.2243 19.8754 72.0533 23.8928C65.8822 27.9101 61.0204 33.6313 58.0621 40.3566L57.9414 40.6323C20.1869 128.653 20.0954 128.887 19.931 129.308C13.2937 146.228 21.1449 165.026 37.806 172.104C41.9303 173.862 46.3703 174.766 50.8563 174.763C62.6038 174.763 74.4378 168.472 82.5228 157.503L82.5777 157.427C82.9942 156.835 83.4078 156.317 83.8459 155.642C86.6608 151.3 88.723 149.417 92.8095 149.417C96.8966 149.417 98.9578 151.3 101.774 155.642C102.211 156.317 102.625 156.835 103.041 157.427L103.096 157.503C111.182 168.472 123.016 174.763 134.763 174.763C139.249 174.766 143.689 173.862 147.813 172.104C164.474 165.026 172.326 146.228 165.688 129.308ZM144.543 164.466C141.452 165.783 138.125 166.461 134.763 166.459C125.712 166.459 116.8 161.418 110.305 152.628C109.985 152.169 109.621 151.555 109.238 150.963C106.458 146.676 101.762 139.461 92.8095 139.461C83.8573 139.461 79.1611 146.676 76.3817 150.963C75.9977 151.555 75.6345 152.169 75.3137 152.628C68.8193 161.418 59.9072 166.459 50.8563 166.459C47.4944 166.461 44.1671 165.783 41.0763 164.466C28.5864 159.16 22.7096 145.044 27.7019 132.317C27.8655 131.909 30.6804 125.327 65.5951 43.9265L65.6905 43.7087C67.996 38.4562 71.7893 33.9871 76.606 30.8488C81.4227 27.7104 87.0538 26.0389 92.8098 26.0389C98.5658 26.0389 104.197 27.7104 109.014 30.8488C113.83 33.9871 117.624 38.4562 119.929 43.7087L120.024 43.9265C154.939 125.327 157.754 131.909 157.918 132.317C162.909 145.044 157.033 159.16 144.543 164.466Z" fill="#004851"/>
<path d="M182.042 122.886C181.751 122.143 143.597 33.1852 143.597 33.1852C139.258 23.3711 132.147 15.026 123.129 9.16711C114.111 3.30822 103.577 0.188629 92.8099 0.188629C82.0428 0.188629 71.5084 3.30822 62.4906 9.16711C53.4728 15.026 46.3613 23.3711 42.023 33.1852C42.023 33.1852 3.86852 122.143 3.57751 122.886C-6.53383 148.662 5.47725 177.321 30.9232 188.13C37.223 190.814 44.0047 192.194 50.8566 192.189C60.8378 192.194 70.6101 189.341 79.0088 183.97C80.3072 183.127 81.5023 182.363 82.6578 181.585C86.9968 178.662 90.0621 176.959 92.8101 176.959C95.5576 176.959 98.6229 178.662 102.962 181.585C104.117 182.363 105.313 183.127 106.611 183.97C115.01 189.341 124.782 192.194 134.763 192.189C141.615 192.194 148.397 190.814 154.697 188.13C180.142 177.321 192.153 148.662 182.042 122.886ZM151.427 180.491C145.008 183.22 138.013 184.33 131.06 183.723C124.108 183.117 117.413 180.812 111.569 177.013C110.329 176.209 109.164 175.424 108.038 174.665C102.516 170.947 98.112 166.693 92.8101 166.693C87.5077 166.693 83.1031 170.947 77.5818 174.665C76.4552 175.424 75.29 176.209 74.051 177.013C68.2067 180.812 61.5119 183.117 54.5596 183.723C47.6072 184.33 40.6119 183.22 34.1932 180.491C12.919 171.454 2.88236 147.478 11.3442 125.906C11.5871 125.286 49.652 36.5357 49.652 36.5357C53.3377 28.1949 59.3806 21.1023 67.0438 16.1227C74.7071 11.1431 83.6596 8.49162 92.8098 8.49162C101.96 8.49162 110.912 11.1431 118.576 16.1227C126.239 21.1023 132.282 28.1949 135.968 36.5357C135.968 36.5357 174.032 125.286 174.275 125.906C182.737 147.478 172.701 171.454 151.427 180.491Z" fill="#004851"/>
<path d="M149.361 135.671C149.228 135.329 128.731 87.5354 111.559 47.5017L111.534 47.4447C110.807 45.7809 109.862 44.2206 108.722 42.8046C106.809 40.4341 104.386 38.5212 101.632 37.2069C98.8785 35.8926 95.8636 35.2103 92.8098 35.2103C89.756 35.2103 86.741 35.8926 83.9871 37.2069C81.2332 38.5212 78.8104 40.4341 76.8972 42.8046C75.758 44.2206 74.8127 45.7809 74.0859 47.4447L74.0608 47.5017C56.889 87.5354 36.3915 135.329 36.2579 135.671C35.2838 138.051 34.9121 140.634 35.1755 143.191C35.439 145.749 36.3295 148.202 37.7688 150.337C39.208 152.471 41.1519 154.22 43.4293 155.43C45.7067 156.64 48.2478 157.275 50.8292 157.277C56.6015 157.277 62.0928 154.214 66.2896 148.654C66.5292 148.337 75.4081 136.346 78.5201 132.234C80.9328 129.046 84.1877 124.685 92.8101 124.685C101.431 124.685 104.687 129.046 107.099 132.234C110.211 136.346 119.09 148.337 119.33 148.654C123.527 154.214 129.018 157.277 134.79 157.277C137.372 157.275 139.913 156.64 142.19 155.43C144.468 154.22 146.411 152.471 147.85 150.336C149.29 148.202 150.18 145.749 150.444 143.191C150.707 140.634 150.335 138.051 149.361 135.671ZM137.686 148.38C136.771 148.771 135.785 148.973 134.789 148.973C131.702 148.973 128.578 147.087 125.993 143.663C125.679 143.236 118.622 133.937 114.102 127.436C113.239 126.196 106.123 115.36 92.8101 115.36C79.496 115.36 72.38 126.196 71.5176 127.436C66.9976 133.937 59.9404 143.236 59.6268 143.663C57.0417 147.087 53.9173 148.973 50.8297 148.973C49.8337 148.973 48.8482 148.771 47.933 148.38C46.1464 147.597 44.7368 146.151 44.0039 144.35C43.2711 142.548 43.2727 140.533 44.0086 138.732C44.9913 136.413 80.8516 52.8081 81.7154 50.7943C82.1309 49.8276 82.6722 48.9196 83.3253 48.0935L83.3833 48.0228C84.5148 46.6158 85.9495 45.4801 87.5811 44.6997C89.2128 43.9193 90.9997 43.5141 92.8098 43.5141C94.6199 43.5141 96.4068 43.9193 98.0384 44.6997C99.6701 45.4801 101.105 46.6158 102.236 48.0228L102.294 48.0935C102.947 48.9196 103.488 49.8277 103.904 50.7943C104.767 52.8081 140.628 136.413 141.61 138.732C142.346 140.533 142.348 142.548 141.615 144.349C140.882 146.151 139.473 147.597 137.686 148.38Z" fill="#004851"/>
</svg>
